<svg id="Group_129" data-name="Group 129" xmlns="http://www.w3.org/2000/svg" width="19.996" height="20" viewBox="0 0 19.996 20">
  <path id="Path_224" data-name="Path 224" d="M177.78,174.6a3.18,3.18,0,1,0,3.18,3.18A3.183,3.183,0,0,0,177.78,174.6Z" transform="translate(-167.78 -167.78)" fill="#1ea9d4"/>
  <path id="Path_225" data-name="Path 225" d="M16.278,0H3.723A3.729,3.729,0,0,0,0,3.723V16.274A3.73,3.73,0,0,0,3.723,20H16.274A3.727,3.727,0,0,0,20,16.278V3.723A3.724,3.724,0,0,0,16.278,0ZM10,14.352A4.352,4.352,0,1,1,14.352,10,4.358,4.358,0,0,1,10,14.352Zm6.063-9.586a.585.585,0,0,1-.828,0,.586.586,0,1,1,.828,0Z" fill="#1ea9d4"/>
</svg>
