<svg id="Group_150" data-name="Group 150" xmlns="http://www.w3.org/2000/svg" width="25.145" height="20" viewBox="0 0 25.145 20">
  <circle id="Ellipse_1" data-name="Ellipse 1" cx="5.054" cy="5.054" r="5.054" transform="translate(12.383)" fill="#fff"/>
  <path id="Path_27" data-name="Path 27" d="M13.141,4.967a1.108,1.108,0,0,0-.758.884,10.731,10.731,0,0,1-10.74,10.74A7.2,7.2,0,0,1,0,16.465a14.418,14.418,0,0,0,19.964-3.917,14.124,14.124,0,0,0,2.4-8.087C22.491,3.577,16.553,4.967,13.141,4.967Z" transform="translate(0 1.098)" fill="#fff"/>
  <path id="Path_28" data-name="Path 28" d="M12.825,5.854A14.788,14.788,0,0,1,1.832.8,5.752,5.752,0,0,0,1.2,3.327,5.069,5.069,0,0,0,6.254,8.381c2.653,0,7.455,0,7.708-2.527Z" transform="translate(0.316 0.211)" fill="#fff"/>
  <path id="Path_29" data-name="Path 29" d="M3.5,6.216a4.288,4.288,0,0,1-2.4-.632V5.71a5.069,5.069,0,0,0,5.054,5.054c2.78,0,6.7-2.022,6.7-4.8C12.851,4.068,6.281,6.216,3.5,6.216Z" transform="translate(0.29 1.366)" fill="#fff"/>
  <path id="Path_30" data-name="Path 30" d="M6.291,9.527a4.522,4.522,0,0,1-3.791.632,5,5,0,0,0,4.8,3.664A6.718,6.718,0,0,0,13.24,7.884C13.24,5.483,7.681,8.642,6.291,9.527Z" transform="translate(0.659 1.845)" fill="#fff"/>
  <path id="Path_31" data-name="Path 31" d="M15.684,1.664c-1.643,0-2.022,2.148.126,2.148A5.174,5.174,0,0,0,20.611.4,11.408,11.408,0,0,1,15.684,1.664Z" transform="translate(3.775 0.105)" fill="#fff"/>
  <path id="Path_32" data-name="Path 32" d="M18.085,2.7a9.064,9.064,0,0,1-3.664-.758c-3.412-1.39-5.56,4.3-.253,4.3a9.537,9.537,0,0,0,8.087-4.422A9.91,9.91,0,0,1,18.085,2.7Z" transform="translate(2.89 0.455)" fill="#fff"/>
</svg>
