<svg id="Group_1665" data-name="Group 1665" xmlns="http://www.w3.org/2000/svg" width="36.926" height="14.926" viewBox="0 0 36.926 14.926">
  <path id="image-2" d="M10.582,4.985A1.119,1.119,0,1,0,11.7,6.1,1.148,1.148,0,0,0,10.582,4.985ZM14.687,2H4.239A2.2,2.2,0,0,0,2,4.239V14.687a2.2,2.2,0,0,0,2.239,2.239H14.687a2.2,2.2,0,0,0,2.239-2.239V4.239A2.2,2.2,0,0,0,14.687,2Zm.746,8.881L14.015,9.463a2.3,2.3,0,0,0-3.134,0l-.672.672L8.045,7.97a2.3,2.3,0,0,0-3.134,0L3.493,9.388V4.239a.705.705,0,0,1,.746-.746H14.687a.705.705,0,0,1,.746.746Z" transform="translate(20 -2)" fill="#9fa5b2"/>
  <path id="arrow-8" d="M1,7H8.6L5.3,10.3a.99.99,0,0,0,1.4,1.4l5-5a.967.967,0,0,0,0-1.4h0l-5-5A.967.967,0,0,0,5.3.3a.967.967,0,0,0,0,1.4L8.6,5H1A.945.945,0,0,0,0,6,1,1,0,0,0,1,7Z" transform="translate(12 2) rotate(90)" fill="#215099"/>
</svg>
