<svg xmlns="http://www.w3.org/2000/svg" width="14.926" height="14.926" viewBox="0 0 14.926 14.926">
  <path id="image-2" d="M10.582,4.985A1.119,1.119,0,1,0,11.7,6.1,1.148,1.148,0,0,0,10.582,4.985ZM14.687,2H4.239A2.2,2.2,0,0,0,2,4.239V14.687a2.2,2.2,0,0,0,2.239,2.239H14.687a2.2,2.2,0,0,0,2.239-2.239V4.239A2.2,2.2,0,0,0,14.687,2Zm.746,8.881L14.015,9.463a2.3,2.3,0,0,0-3.134,0l-.672.672L8.045,7.97a2.3,2.3,0,0,0-3.134,0L3.493,9.388V4.239a.705.705,0,0,1,.746-.746H14.687a.705.705,0,0,1,.746.746Z" transform="translate(-2 -2)" fill="#e3e9ec"/>
</svg>
