<?xml version="1.0" encoding="utf-8"?>
<!-- Generator: Adobe Illustrator 25.0.0, SVG Export Plug-In . SVG Version: 6.00 Build 0)  -->
<svg version="1.1" id="Layer_1" xmlns="http://www.w3.org/2000/svg" xmlns:xlink="http://www.w3.org/1999/xlink" x="0px" y="0px"
	 viewBox="0 0 500 500" style="enable-background:new 0 0 500 500;" xml:space="preserve">
<style type="text/css">
	.st0{fill:#575756;}
	.st1{fill:url(#SVGID_1_);}
	.st2{opacity:0.4;fill:#0D89CA;enable-background:new    ;}
	.st3{fill:url(#SVGID_2_);}
	.st4{display:none;}
	.st5{display:inline;fill:#1FA9D4;}
	.st6{display:inline;}
	.st7{fill:#1FA9D4;}
</style>
<g>
	<g id="Layer_1_2_">
		<polygon class="st0" points="97.8,103.1 384.2,169.4 183.5,384.2 		"/>
		
			<linearGradient id="SVGID_1_" gradientUnits="userSpaceOnUse" x1="308.242" y1="2075.7207" x2="1664.6321" y2="2109.6106" gradientTransform="matrix(0.87 -0.49 -0.49 -0.87 112.665 2695.4397)">
			<stop  offset="0.53" style="stop-color:#1D1D1B"/>
			<stop  offset="0.57" style="stop-color:#164450"/>
			<stop  offset="0.6" style="stop-color:#106882"/>
			<stop  offset="0.63" style="stop-color:#0B84A9"/>
			<stop  offset="0.66" style="stop-color:#0798C5"/>
			<stop  offset="0.69" style="stop-color:#05A5D6"/>
			<stop  offset="0.71" style="stop-color:#04A9DC"/>
			<stop  offset="0.72" style="stop-color:#079FD4"/>
			<stop  offset="0.77" style="stop-color:#186EB1"/>
			<stop  offset="0.81" style="stop-color:#234B97"/>
			<stop  offset="0.84" style="stop-color:#2A3688"/>
			<stop  offset="0.87" style="stop-color:#2D2E82"/>
		</linearGradient>
		<polygon class="st1" points="373.5,144.4 238.1,371.7 223,396.9 79.6,140.4 		"/>
		<polyline class="st2" points="144.3,256.1 163.4,188.6 291.3,190.4 222.7,394.7 		"/>
		
			<linearGradient id="SVGID_2_" gradientUnits="userSpaceOnUse" x1="723.162" y1="1958.7917" x2="1807.342" y2="2232.7517" gradientTransform="matrix(0.87 -0.49 -0.49 -0.87 112.665 2695.4397)">
			<stop  offset="0" style="stop-color:#FFFFFF"/>
			<stop  offset="0.23" style="stop-color:#C5C5C5"/>
			<stop  offset="0.38" style="stop-color:#AFB2B6"/>
			<stop  offset="0.57" style="stop-color:#FFFFFF"/>
			<stop  offset="0.7" style="stop-color:#FFFFFF"/>
			<stop  offset="0.92" style="stop-color:#AFB2B6"/>
		</linearGradient>
		<polygon class="st3" points="163.4,188.6 291.3,190.4 225.8,300.3 		"/>
		<g class="st4">
			<path class="st5" d="M403.2,352.8h5.6v11.5h11.6v5.2h-11.6v11.6h-5.6v-11.6h-11.6v-5.2h11.6V352.8z"/>
			<g class="st6">
				<path class="st0" d="M297.3,368.7c1.9-0.2,3.7-0.7,5.3-1.3c1.6-0.7,3-1.5,4.2-2.6c1.2-1.1,2.1-2.3,2.7-3.7c0.6-1.4,1-2.9,1-4.6
					c0-1.1-0.2-2.2-0.7-3.2c-0.4-1-1.1-1.9-1.9-2.6c-0.8-0.7-1.8-1.3-2.9-1.7s-2.4-0.6-3.8-0.6c-1,0-2,0.2-3,0.5s-2.1,0.8-3,1.4
					c-1,0.6-1.9,1.3-2.7,2c-0.8,0.8-1.5,1.6-2,2.5l-1.5-0.6c0.5-1.5,1.3-3,2.2-4.4s2-2.6,3.3-3.6c1.3-1,2.7-1.8,4.4-2.4
					c1.6-0.6,3.4-0.9,5.4-0.9c1.9,0,3.6,0.3,5.2,0.8c1.6,0.6,3.1,1.3,4.3,2.3s2.2,2.1,2.9,3.4c0.7,1.3,1.1,2.8,1.1,4.3
					c0,0.8-0.2,1.7-0.6,2.7s-1,2-1.7,3s-1.5,2-2.5,2.9s-1.9,1.8-3,2.6c1.5,0.4,2.9,1.1,4.1,2c1.3,0.9,2.4,2,3.4,3.2
					c1,1.2,1.7,2.6,2.3,4c0.6,1.4,0.8,2.8,0.8,4.3c0,3-0.6,5.7-1.8,8s-2.8,4.1-4.9,5.7c-2.1,1.5-4.6,2.6-7.4,3.4
					c-2.8,0.7-5.9,1.1-9.2,1.1c-1.4,0-2.7-0.1-3.8-0.3c-1.1-0.2-2-0.5-2.8-0.9c-0.8-0.4-1.4-0.8-1.8-1.3c-0.4-0.5-0.6-1.1-0.6-1.7
					c0-0.5,0.1-1,0.4-1.4c0.3-0.4,0.6-0.7,1-0.9c0.4-0.2,0.9-0.4,1.4-0.5c0.5-0.1,1-0.1,1.4-0.1c0.9,0,1.7,0.1,2.4,0.3
					c0.7,0.2,1.3,0.4,1.8,0.7c0.5,0.3,1,0.6,1.4,0.9c0.4,0.3,0.9,0.6,1.4,0.9s1,0.5,1.6,0.7c0.6,0.2,1.3,0.3,2.2,0.3
					c1.8,0,3.4-0.3,4.7-0.9c1.4-0.6,2.5-1.4,3.4-2.4c0.9-1,1.6-2.1,2.1-3.4c0.5-1.3,0.7-2.6,0.7-4c0-1.8-0.3-3.4-1-4.9
					s-1.7-2.8-3.1-4s-3.2-2-5.3-2.6s-4.7-0.9-7.6-0.9V368.7z"/>
				<path class="st0" d="M333.5,344.1h17.1c5.3,0,9.8,0.5,13.6,1.5c3.8,1,7,2.6,9.5,4.7c2.9,2.5,5.1,5.3,6.5,8.5
					c1.5,3.2,2.2,6.7,2.2,10.5c0,3.6-0.7,7-2,10.2c-1.3,3.2-3.2,5.9-5.7,8.3s-5.6,4.2-9.3,5.6c-3.7,1.4-7.9,2-12.7,2h-19.2V344.1z
					 M342.1,391.7h9.1c2.9,0,5.6-0.5,8.2-1.4c2.6-1,4.8-2.4,6.7-4.3c1.9-1.9,3.4-4.2,4.5-7c1.1-2.8,1.6-6,1.6-9.6
					c0-3.1-0.5-6-1.5-8.7c-1-2.6-2.5-4.9-4.3-6.8c-1.9-1.9-4.1-3.4-6.6-4.5c-2.6-1.1-5.4-1.6-8.4-1.6h-9.2V391.7z"/>
			</g>
		</g>
	</g>
</g>
<g>
	<path class="st0" d="M310.7,353.9c0,3.2-1,5.9-2.9,8.2s-4.7,3.8-8.2,4.6v0.2c4.1,0.5,7.3,1.8,9.4,3.8s3.2,4.7,3.2,8.1
		c0,4.9-1.8,8.8-5.4,11.5s-8.7,4.1-15.4,4.1c-5.6,0-10.5-0.9-14.8-2.8v-9.2c2,1,4.2,1.8,6.6,2.5s4.8,0.9,7.1,0.9
		c3.6,0,6.2-0.6,7.9-1.8s2.6-3.2,2.6-5.9c0-2.4-1-4.1-3-5.1s-5.1-1.5-9.4-1.5h-3.9v-8.3h4c4,0,6.9-0.5,8.7-1.6s2.8-2.8,2.8-5.4
		c0-3.9-2.4-5.8-7.3-5.8c-1.7,0-3.4,0.3-5.2,0.8s-3.7,1.5-5.8,2.9l-5-7.5c4.7-3.4,10.3-5.1,16.8-5.1c5.3,0,9.5,1.1,12.6,3.2
		S310.7,350.1,310.7,353.9z"/>
	<path class="st0" d="M364.1,367.7c0,8.5-2.4,14.9-7.2,19.4s-11.8,6.8-20.9,6.8h-14.6v-51.4h16.1c8.4,0,14.9,2.2,19.5,6.6
		S364.1,359.7,364.1,367.7z M352.8,367.9c0-11-4.9-16.6-14.6-16.6h-5.8v33.5h4.7C347.6,384.8,352.8,379.2,352.8,367.9z"/>
	<path class="st7" d="M385,372.3h-13.6v-7.7H385v-13.7h7.7v13.7h13.6v7.7h-13.6v13.5H385V372.3z"/>
</g>
</svg>
