<svg id="tellers-logo" xmlns="http://www.w3.org/2000/svg" width="80.018" height="26.506" viewBox="0 0 80.018 26.506">
  <g id="Logo" transform="translate(55.153)">
    <g id="Group_112" data-name="Group 112" transform="translate(0 0)">
      <path id="Path_933" data-name="Path 933" d="M215.925,51.837l-7.871-.64L205.3,49l.973,2.114,6.786,3.727,7.287.5Z" transform="translate(-205.133 -36.707)" fill="#715d5d"/>
      <path id="XMLID_4_" d="M236.9,43.634l2.781-.334,1.14.834,6.536,8.177,2.948,3.059-2.67,2.753-1.53-3.755-5.646-3.338-1.307-1.279-1.113-3.866Z" transform="translate(-227.944 -32.592)" fill="#db7449"/>
      <path id="Path_934" data-name="Path 934" d="M253.9,26.886,261.549,15.9l3.087,7.259-2.754,4.784-4.228,2.114Z" transform="translate(-240.216 -12.813)" fill="#dc674a"/>
      <path id="Path_935" data-name="Path 935" d="M270.545,19.875,265.9,14.062,270.934,4.8l2.392,10.346-1.307,2.169" transform="translate(-248.878 -4.8)" fill="#715d5d"/>
      <path id="Path_936" data-name="Path 936" d="M267.107,37.111,264.242,28.6,261.6,32.021Z" transform="translate(-245.774 -21.98)" fill="#a99795"/>
      <path id="Path_937" data-name="Path 937" d="M256,52.5l7.4,1.863-4.228,2.114Z" transform="translate(-241.732 -39.233)" fill="#d06545"/>
      <path id="Path_938" data-name="Path 938" d="M271.1,28.6l5.98,3.727-2.948,5.507Z" transform="translate(-252.632 -21.98)" fill="#826a6a"/>
      <path id="Path_939" data-name="Path 939" d="M205.84,50.681,204.7,48.4l2.92,2.364Z" transform="translate(-204.7 -36.273)" fill="#5c4c4c"/>
      <path id="Path_940" data-name="Path 940" d="M215.364,60.911,213,57.434l-4.2-.834Z" transform="translate(-207.66 -42.193)" fill="#a99795"/>
      <path id="Path_941" data-name="Path 941" d="M229.189,56.378,225.1,56.1l1.808,2.893Z" transform="translate(-219.426 -41.832)" fill="#826a6a"/>
      <path id="Path_942" data-name="Path 942" d="M267.7,80.6l2.531-1.5-.556,5.841Z" transform="translate(-250.178 -58.435)" fill="#826a6a"/>
      <path id="Path_943" data-name="Path 943" d="M267.4,66.8l.334,4.478,2.447-1.7Z" transform="translate(-249.961 -49.556)" fill="#a99795"/>
      <path id="Path_944" data-name="Path 944" d="M253.423,68,248.5,69.2l5.118,3.087Z" transform="translate(-236.318 -50.422)" fill="#be5849"/>
      <path id="Path_945" data-name="Path 945" d="M245,60.148l2.587-2.448-1.279,3.727Z" transform="translate(-233.791 -42.987)" fill="#de8b62"/>
      <path id="Path_946" data-name="Path 946" d="M251.807,48.831,251,46.3l1.391,1.724Z" transform="translate(-238.123 -34.758)" fill="#db744b"/>
      <path id="Path_947" data-name="Path 947" d="M246.991,45.2,245.1,50.123l2.475-2.726Z" transform="translate(-233.863 -33.963)" fill="#d06545"/>
      <path id="Path_948" data-name="Path 948" d="M241.445,49.9l-.445.751,1.113,3.866Z" transform="translate(-230.904 -37.356)" fill="#be5849"/>
      <path id="Path_949" data-name="Path 949" d="M242.6,49.9" transform="translate(-232.059 -37.356)" fill="#98765a"/>
      <path id="Path_950" data-name="Path 950" d="M276.7,82.341l.528-5.841,2.364,2.5Z" transform="translate(-256.675 -56.558)" fill="#715d5d"/>
      <g id="Group_97" data-name="Group 97" transform="translate(8.678 6.953)">
        <g id="Group_96" data-name="Group 96">
          <path id="Path_951" data-name="Path 951" d="M236.846,33.861l-.946-3.032.417-1.029.751,4.116Z" transform="translate(-235.9 -29.8)" fill="#d06545"/>
          <path id="Path_952" data-name="Path 952" d="M235.9,30.829l.7.5-.278-1.53Z" transform="translate(-235.9 -29.8)" fill="#715d5d"/>
          <path id="Path_953" data-name="Path 953" d="M236.6,34l-.362.584L235.9,33.5Z" transform="translate(-235.9 -32.471)" fill="#826a6a"/>
        </g>
      </g>
      <g id="Group_99" data-name="Group 99" transform="translate(9.512 6.786)">
        <g id="Group_98" data-name="Group 98">
          <path id="Path_954" data-name="Path 954" d="M239.039,33.261,238.9,30.09l.668-.89-.334,4.172Z" transform="translate(-238.9 -29.2)" fill="#d06545"/>
          <path id="Path_955" data-name="Path 955" d="M238.9,30.09l.556.668.111-1.558Z" transform="translate(-238.9 -29.2)" fill="#715d5d"/>
          <path id="Path_956" data-name="Path 956" d="M239.456,33.068l-.5.445L238.9,32.4Z" transform="translate(-238.9 -31.51)" fill="#826a6a"/>
        </g>
      </g>
      <g id="Group_101" data-name="Group 101" transform="translate(9.735 6.898)">
        <g id="Group_100" data-name="Group 100">
          <path id="Path_957" data-name="Path 957" d="M239.7,33.383l.7-3.087.862-.7-1.419,3.949Z" transform="translate(-239.7 -29.6)" fill="#d06545"/>
          <path id="Path_958" data-name="Path 958" d="M242.2,30.3l.334.779.528-1.474Z" transform="translate(-241.505 -29.6)" fill="#715d5d"/>
          <path id="Path_959" data-name="Path 959" d="M241.884,32.879l-.584.306.25-1.085Z" transform="translate(-240.855 -31.405)" fill="#826a6a"/>
        </g>
      </g>
      <g id="Group_103" data-name="Group 103" transform="translate(9.846 7.315)">
        <g id="Group_102" data-name="Group 102">
          <path id="Path_960" data-name="Path 960" d="M240.1,34.354l1.474-2.837,1-.417-2.364,3.421Z" transform="translate(-240.1 -31.1)" fill="#d06545"/>
          <path id="Path_961" data-name="Path 961" d="M245.4,31.517l.139.862L246.4,31.1Z" transform="translate(-243.926 -31.1)" fill="#715d5d"/>
          <path id="Path_962" data-name="Path 962" d="M244.168,33.462l-.668.139.528-1Z" transform="translate(-242.554 -32.183)" fill="#826a6a"/>
        </g>
      </g>
      <g id="Group_105" data-name="Group 105" transform="translate(9.985 7.955)">
        <g id="Group_104" data-name="Group 104">
          <path id="Path_963" data-name="Path 963" d="M240.6,35.9l2.142-2.336,1.113-.167-3.2,2.726Z" transform="translate(-240.6 -33.4)" fill="#d06545"/>
          <path id="Path_964" data-name="Path 964" d="M248.083,33.567,248,34.4l1.2-1Z" transform="translate(-245.942 -33.4)" fill="#715d5d"/>
          <path id="Path_965" data-name="Path 965" d="M246.268,34.834H245.6l.751-.834Z" transform="translate(-244.209 -33.833)" fill="#826a6a"/>
        </g>
      </g>
      <g id="Group_107" data-name="Group 107" transform="translate(10.152 8.706)">
        <g id="Group_106" data-name="Group 106">
          <path id="Path_966" data-name="Path 966" d="M241.2,37.8l2.67-1.7,1.113.111L241.2,38.019Z" transform="translate(-241.2 -36.1)" fill="#d06545"/>
          <path id="Path_967" data-name="Path 967" d="M250.006,36.1l-.306.779,1.418-.668Z" transform="translate(-247.336 -36.1)" fill="#715d5d"/>
          <path id="Path_968" data-name="Path 968" d="M248.04,36.879l-.64-.195.946-.584Z" transform="translate(-245.676 -36.1)" fill="#826a6a"/>
        </g>
      </g>
      <g id="Group_109" data-name="Group 109" transform="translate(10.263 9.429)">
        <g id="Group_108" data-name="Group 108">
          <path id="Path_969" data-name="Path 969" d="M241.656,39.646l3.032-.946,1.029.417-4.116.751Z" transform="translate(-241.6 -38.7)" fill="#d06545"/>
          <path id="Path_970" data-name="Path 970" d="M251.4,38.7l-.5.7,1.53-.278Z" transform="translate(-248.313 -38.7)" fill="#715d5d"/>
          <path id="Path_971" data-name="Path 971" d="M249.384,39.4l-.584-.362,1.085-.334Z" transform="translate(-246.797 -38.7)" fill="#826a6a"/>
        </g>
      </g>
      <g id="Group_111" data-name="Group 111" transform="translate(10.374 10.291)">
        <g id="Group_110" data-name="Group 110">
          <path id="Path_972" data-name="Path 972" d="M242.111,41.911l3.171-.111.89.64L242,42.106Z" transform="translate(-242 -41.8)" fill="#d06545"/>
          <path id="Path_973" data-name="Path 973" d="M252.067,41.8l-.667.528,1.557.111Z" transform="translate(-248.786 -41.8)" fill="#715d5d"/>
          <path id="Path_974" data-name="Path 974" d="M250.245,42.328l-.445-.5,1.113-.028Z" transform="translate(-247.631 -41.8)" fill="#826a6a"/>
        </g>
      </g>
      <path id="XMLID_3_" d="M234.6,42l1.029-1,2.392.64-1.2,1.836-.668-.195-1.113-.25" transform="translate(-226.284 -30.932)" fill="#dc674a"/>
      <path id="Path_975" data-name="Path 975" d="M223.483,44.6a9.415,9.415,0,0,0-4.283,2.475c1.669-.918,3.643-1.669,4.728-1.418.306.056.389.028.389-.083C224.318,45.3,223.483,44.6,223.483,44.6Z" transform="translate(-215.167 -33.53)" fill="#a99795"/>
      <path id="Path_976" data-name="Path 976" d="M283.162,62.9l1.641,3.977-2.5-.834Z" transform="translate(-260.717 -46.741)" fill="#a99795"/>
      <path id="Path_977" data-name="Path 977" d="M282.983,24.2l-1.53,3.115L278.7,25.841Z" transform="translate(-258.118 -18.804)" fill="#826a6a"/>
      <path id="Path_978" data-name="Path 978" d="M275.684,68.352,275.1,67.1l1.14-.5Z" transform="translate(-255.52 -49.411)" fill="#a99795"/>
      <path id="Path_979" data-name="Path 979" d="M233.2,66.13l1.669-1.53,1.613,2.448Z" transform="translate(-225.273 -47.968)" fill="#a99795"/>
    </g>
  </g>
  <g id="Group_113" data-name="Group 113" transform="translate(0 6.315)">
    <path id="Path_980" data-name="Path 980" d="M6.4,48.4h6.675v1.975H10.822V62.168H8.653V50.347H6.4Z" transform="translate(-6.4 -48.233)" fill="#fff"/>
    <path id="Path_981" data-name="Path 981" d="M35.969,54.185h2.976V56.16H35.969v4.033H39.7v1.975H33.8V48.4h5.9v1.975H35.969Z" transform="translate(-26.179 -48.233)" fill="#fff"/>
    <path id="Path_982" data-name="Path 982" d="M59.8,48.4h2.169V60.193h3.56v1.975H59.8Z" transform="translate(-44.948 -48.233)" fill="#fff"/>
    <path id="Path_983" data-name="Path 983" d="M83.8,48.4h2.169V60.193h3.56v1.975H83.8Z" transform="translate(-62.273 -48.233)" fill="#fff"/>
    <path id="Path_984" data-name="Path 984" d="M109.869,54.185h2.976V56.16h-2.976v4.033H113.6v1.975h-5.9V48.4h5.9v1.975h-3.727Z" transform="translate(-79.525 -48.233)" fill="#fff"/>
    <path id="Path_985" data-name="Path 985" d="M138.134,62.14a4.38,4.38,0,0,1-.195-1.7V58.3c0-1.279-.445-1.752-1.418-1.752h-.751v5.59H133.6V48.4h3.254c2.225,0,3.2,1.029,3.2,3.171v1.085c0,1.418-.445,2.336-1.418,2.781,1.085.445,1.446,1.5,1.446,2.92v2.114a4.417,4.417,0,0,0,.222,1.669ZM135.8,50.347v4.228h.834c.807,0,1.307-.362,1.307-1.446V51.765c0-.973-.334-1.418-1.113-1.418Z" transform="translate(-98.222 -48.233)" fill="#fff"/>
    <path id="Path_986" data-name="Path 986" d="M164.054,47.8c2.114,0,3.171,1.252,3.171,3.449v.445h-2.03v-.556c0-.973-.389-1.363-1.085-1.363s-1.085.362-1.085,1.363c0,2.837,4.228,3.365,4.228,7.287,0,2.2-1.113,3.449-3.226,3.449s-3.226-1.252-3.226-3.449V57.59h2.03v.973c0,.973.445,1.335,1.113,1.335.7,0,1.113-.362,1.113-1.335,0-2.837-4.228-3.365-4.228-7.287C160.883,49.052,161.968,47.8,164.054,47.8Z" transform="translate(-117.857 -47.8)" fill="#fff"/>
  </g>
</svg>
