<svg id="video" xmlns="http://www.w3.org/2000/svg" width="14.916" height="14.916" viewBox="0 0 14.916 14.916">
  <path id="Path_2315" data-name="Path 2315" d="M0,0H14.916V14.916H0Z" fill="none"/>
  <path id="Path_2316" data-name="Path 2316" d="M5.243,6.486H4v8.7A1.243,1.243,0,0,0,5.243,16.43h8.7V15.187h-8.7ZM15.187,4H7.729A1.243,1.243,0,0,0,6.486,5.243V12.7a1.243,1.243,0,0,0,1.243,1.243h7.458A1.243,1.243,0,0,0,16.43,12.7V5.243A1.243,1.243,0,0,0,15.187,4Zm-4.972,7.769V6.175l3.729,2.8Z" transform="translate(-2.757 -2.757)" fill="#fff"/>
</svg>
